<mxfile host="app.diagrams.net" modified="2023-11-25T17:05:11.715Z" agent="Mozilla/5.0 (Macintosh; Intel Mac OS X 10_15_7) AppleWebKit/537.36 (KHTML, like Gecko) Chrome/117.0.0.0 Safari/537.36" etag="j6RrZf-xt8UVkvu4DyoL" version="22.1.4" type="device">
  <diagram name="Sayfa -1" id="Qw63XjKKH6EkeKbqogJP">
    <mxGraphModel dx="6120" dy="3495" grid="1" gridSize="10" guides="1" tooltips="1" connect="1" arrows="1" fold="1" page="1" pageScale="1" pageWidth="2500" pageHeight="3500" math="0" shadow="0">
      <root>
        <mxCell id="0" />
        <mxCell id="1" parent="0" />
        <mxCell id="5j7AbYeZaHDb51erD1fv-48" style="edgeStyle=orthogonalEdgeStyle;rounded=0;orthogonalLoop=1;jettySize=auto;html=1;" edge="1" parent="1" source="5j7AbYeZaHDb51erD1fv-46" target="5j7AbYeZaHDb51erD1fv-50">
          <mxGeometry relative="1" as="geometry">
            <mxPoint x="460" y="910" as="targetPoint" />
          </mxGeometry>
        </mxCell>
        <mxCell id="5j7AbYeZaHDb51erD1fv-46" value="&lt;hr&gt;" style="shape=umlActor;verticalLabelPosition=bottom;verticalAlign=top;html=1;outlineConnect=0;" vertex="1" parent="1">
          <mxGeometry x="80" y="750" width="160" height="320" as="geometry" />
        </mxCell>
        <mxCell id="5j7AbYeZaHDb51erD1fv-50" value="&lt;font style=&quot;font-size: 23px;&quot;&gt;WebUI&lt;br&gt;Mobile&lt;/font&gt;" style="rounded=0;whiteSpace=wrap;html=1;direction=south;" vertex="1" parent="1">
          <mxGeometry x="330" y="715" width="160" height="390" as="geometry" />
        </mxCell>
        <mxCell id="5j7AbYeZaHDb51erD1fv-71" value="" style="rounded=1;whiteSpace=wrap;html=1;" vertex="1" parent="1">
          <mxGeometry x="740" y="710" width="360" height="130" as="geometry" />
        </mxCell>
        <mxCell id="5j7AbYeZaHDb51erD1fv-72" value="" style="rounded=0;whiteSpace=wrap;html=1;" vertex="1" parent="1">
          <mxGeometry x="740" y="790" width="180" height="90" as="geometry" />
        </mxCell>
        <mxCell id="5j7AbYeZaHDb51erD1fv-73" value="" style="rounded=0;whiteSpace=wrap;html=1;" vertex="1" parent="1">
          <mxGeometry x="920" y="790" width="180" height="90" as="geometry" />
        </mxCell>
        <mxCell id="5j7AbYeZaHDb51erD1fv-76" value="" style="rounded=1;whiteSpace=wrap;html=1;" vertex="1" parent="1">
          <mxGeometry x="1540" y="715" width="360" height="130" as="geometry" />
        </mxCell>
        <mxCell id="5j7AbYeZaHDb51erD1fv-74" value="" style="rounded=0;whiteSpace=wrap;html=1;" vertex="1" parent="1">
          <mxGeometry x="1540" y="795" width="180" height="90" as="geometry" />
        </mxCell>
        <mxCell id="5j7AbYeZaHDb51erD1fv-75" value="" style="rounded=0;whiteSpace=wrap;html=1;" vertex="1" parent="1">
          <mxGeometry x="1720" y="795" width="180" height="90" as="geometry" />
        </mxCell>
        <mxCell id="5j7AbYeZaHDb51erD1fv-77" value="" style="rhombus;whiteSpace=wrap;html=1;" vertex="1" parent="1">
          <mxGeometry x="1190" y="1144" width="270" height="270" as="geometry" />
        </mxCell>
        <mxCell id="5j7AbYeZaHDb51erD1fv-78" value="" style="strokeWidth=2;html=1;shape=mxgraph.flowchart.database;whiteSpace=wrap;" vertex="1" parent="1">
          <mxGeometry x="1660" y="1410" width="250" height="250" as="geometry" />
        </mxCell>
        <mxCell id="5j7AbYeZaHDb51erD1fv-79" value="" style="strokeWidth=2;html=1;shape=mxgraph.flowchart.database;whiteSpace=wrap;" vertex="1" parent="1">
          <mxGeometry x="490" y="1410" width="250" height="250" as="geometry" />
        </mxCell>
        <mxCell id="5j7AbYeZaHDb51erD1fv-80" value="" style="rounded=0;whiteSpace=wrap;html=1;" vertex="1" parent="1">
          <mxGeometry x="1105" y="310" width="440" height="220" as="geometry" />
        </mxCell>
        <mxCell id="5j7AbYeZaHDb51erD1fv-81" value="" style="endArrow=classic;html=1;rounded=0;entryX=-0.001;entryY=0.567;entryDx=0;entryDy=0;entryPerimeter=0;exitX=0.321;exitY=-0.014;exitDx=0;exitDy=0;exitPerimeter=0;" edge="1" parent="1" source="5j7AbYeZaHDb51erD1fv-50" target="5j7AbYeZaHDb51erD1fv-72">
          <mxGeometry width="50" height="50" relative="1" as="geometry">
            <mxPoint x="590" y="890" as="sourcePoint" />
            <mxPoint x="640" y="840" as="targetPoint" />
          </mxGeometry>
        </mxCell>
        <mxCell id="5j7AbYeZaHDb51erD1fv-82" value="" style="endArrow=classic;html=1;rounded=0;exitX=0.546;exitY=1.016;exitDx=0;exitDy=0;exitPerimeter=0;entryX=0.596;entryY=0;entryDx=0;entryDy=0;entryPerimeter=0;" edge="1" parent="1" source="5j7AbYeZaHDb51erD1fv-72" target="5j7AbYeZaHDb51erD1fv-79">
          <mxGeometry width="50" height="50" relative="1" as="geometry">
            <mxPoint x="770" y="1170" as="sourcePoint" />
            <mxPoint x="838" y="1370" as="targetPoint" />
            <Array as="points">
              <mxPoint x="840" y="1120" />
              <mxPoint x="640" y="1120" />
            </Array>
          </mxGeometry>
        </mxCell>
        <mxCell id="5j7AbYeZaHDb51erD1fv-83" value="" style="endArrow=classic;html=1;rounded=0;entryX=0.45;entryY=0.987;entryDx=0;entryDy=0;entryPerimeter=0;" edge="1" parent="1" source="5j7AbYeZaHDb51erD1fv-110">
          <mxGeometry width="50" height="50" relative="1" as="geometry">
            <mxPoint x="1030" y="1251.17" as="sourcePoint" />
            <mxPoint x="1031" y="879.9999999999997" as="targetPoint" />
            <Array as="points">
              <mxPoint x="1030" y="1220" />
              <mxPoint x="1030" y="1199.17" />
            </Array>
          </mxGeometry>
        </mxCell>
        <mxCell id="5j7AbYeZaHDb51erD1fv-84" value="" style="endArrow=classic;html=1;rounded=0;exitX=0.278;exitY=-0.038;exitDx=0;exitDy=0;exitPerimeter=0;entryX=0;entryY=0.228;entryDx=0;entryDy=0;entryPerimeter=0;" edge="1" parent="1" source="5j7AbYeZaHDb51erD1fv-71" target="5j7AbYeZaHDb51erD1fv-80">
          <mxGeometry width="50" height="50" relative="1" as="geometry">
            <mxPoint x="840" y="600" as="sourcePoint" />
            <mxPoint x="840" y="290" as="targetPoint" />
            <Array as="points">
              <mxPoint x="840" y="360" />
            </Array>
          </mxGeometry>
        </mxCell>
        <mxCell id="5j7AbYeZaHDb51erD1fv-85" value="" style="endArrow=classic;html=1;rounded=0;exitX=0.002;exitY=0.785;exitDx=0;exitDy=0;exitPerimeter=0;entryX=0.611;entryY=0;entryDx=0;entryDy=0;entryPerimeter=0;" edge="1" parent="1" source="5j7AbYeZaHDb51erD1fv-80" target="5j7AbYeZaHDb51erD1fv-71">
          <mxGeometry width="50" height="50" relative="1" as="geometry">
            <mxPoint x="980" y="490" as="sourcePoint" />
            <mxPoint x="900" y="460" as="targetPoint" />
            <Array as="points">
              <mxPoint x="960" y="483" />
            </Array>
          </mxGeometry>
        </mxCell>
        <mxCell id="5j7AbYeZaHDb51erD1fv-86" value="" style="endArrow=classic;html=1;rounded=0;exitX=0.5;exitY=0;exitDx=0;exitDy=0;entryX=0.997;entryY=0.592;entryDx=0;entryDy=0;entryPerimeter=0;" edge="1" parent="1" source="5j7AbYeZaHDb51erD1fv-76" target="5j7AbYeZaHDb51erD1fv-80">
          <mxGeometry width="50" height="50" relative="1" as="geometry">
            <mxPoint x="1680" y="500" as="sourcePoint" />
            <mxPoint x="1720" y="260" as="targetPoint" />
            <Array as="points">
              <mxPoint x="1720" y="440" />
            </Array>
          </mxGeometry>
        </mxCell>
        <mxCell id="5j7AbYeZaHDb51erD1fv-87" value="" style="endArrow=classic;html=1;rounded=0;entryX=1;entryY=0.5;entryDx=0;entryDy=0;exitX=0.549;exitY=0.988;exitDx=0;exitDy=0;exitPerimeter=0;" edge="1" parent="1" source="5j7AbYeZaHDb51erD1fv-74" target="5j7AbYeZaHDb51erD1fv-77">
          <mxGeometry width="50" height="50" relative="1" as="geometry">
            <mxPoint x="1640" y="920" as="sourcePoint" />
            <mxPoint x="1640" y="1390" as="targetPoint" />
            <Array as="points">
              <mxPoint x="1640" y="1280" />
            </Array>
          </mxGeometry>
        </mxCell>
        <mxCell id="5j7AbYeZaHDb51erD1fv-88" value="&lt;font style=&quot;font-size: 28px;&quot;&gt;POST addBook&lt;br&gt;{isbn}&lt;/font&gt;" style="text;html=1;align=center;verticalAlign=middle;resizable=0;points=[];autosize=1;strokeColor=none;fillColor=none;" vertex="1" parent="1">
          <mxGeometry x="505" y="870" width="220" height="80" as="geometry" />
        </mxCell>
        <mxCell id="5j7AbYeZaHDb51erD1fv-89" value="&lt;span style=&quot;font-size: 28px;&quot;&gt;discovery&lt;br&gt;book-service&lt;br&gt;&lt;/span&gt;" style="text;html=1;align=center;verticalAlign=middle;resizable=0;points=[];autosize=1;strokeColor=none;fillColor=none;" vertex="1" parent="1">
          <mxGeometry x="630" y="440" width="180" height="80" as="geometry" />
        </mxCell>
        <mxCell id="5j7AbYeZaHDb51erD1fv-92" value="&lt;span style=&quot;font-size: 28px;&quot;&gt;localhost:8080&lt;br&gt;&lt;/span&gt;" style="text;html=1;align=center;verticalAlign=middle;resizable=0;points=[];autosize=1;strokeColor=none;fillColor=none;" vertex="1" parent="1">
          <mxGeometry x="960" y="565" width="200" height="50" as="geometry" />
        </mxCell>
        <mxCell id="5j7AbYeZaHDb51erD1fv-93" value="&lt;font style=&quot;font-size: 44px;&quot;&gt;EurekaServer&lt;/font&gt;" style="text;html=1;align=center;verticalAlign=middle;resizable=0;points=[];autosize=1;strokeColor=none;fillColor=none;" vertex="1" parent="1">
          <mxGeometry x="1180" y="385" width="290" height="70" as="geometry" />
        </mxCell>
        <mxCell id="5j7AbYeZaHDb51erD1fv-94" value="&lt;font style=&quot;font-size: 33px;&quot;&gt;LibraryService&lt;/font&gt;" style="text;html=1;align=center;verticalAlign=middle;resizable=0;points=[];autosize=1;strokeColor=none;fillColor=none;" vertex="1" parent="1">
          <mxGeometry x="805" y="730" width="230" height="50" as="geometry" />
        </mxCell>
        <mxCell id="5j7AbYeZaHDb51erD1fv-95" value="&lt;font style=&quot;font-size: 27px;&quot;&gt;LibraryAPI&lt;/font&gt;" style="text;html=1;align=center;verticalAlign=middle;resizable=0;points=[];autosize=1;strokeColor=none;fillColor=none;" vertex="1" parent="1">
          <mxGeometry x="755" y="810" width="150" height="50" as="geometry" />
        </mxCell>
        <mxCell id="5j7AbYeZaHDb51erD1fv-96" value="&lt;font style=&quot;font-size: 23px;&quot;&gt;EurekaClient&lt;/font&gt;" style="text;html=1;align=center;verticalAlign=middle;resizable=0;points=[];autosize=1;strokeColor=none;fillColor=none;" vertex="1" parent="1">
          <mxGeometry x="930" y="815" width="160" height="40" as="geometry" />
        </mxCell>
        <mxCell id="5j7AbYeZaHDb51erD1fv-97" value="&lt;font style=&quot;font-size: 33px;&quot;&gt;BookService&lt;/font&gt;" style="text;html=1;align=center;verticalAlign=middle;resizable=0;points=[];autosize=1;strokeColor=none;fillColor=none;" vertex="1" parent="1">
          <mxGeometry x="1615" y="730" width="210" height="50" as="geometry" />
        </mxCell>
        <mxCell id="5j7AbYeZaHDb51erD1fv-99" value="&lt;font style=&quot;font-size: 27px;&quot;&gt;BookAPI&lt;/font&gt;" style="text;html=1;align=center;verticalAlign=middle;resizable=0;points=[];autosize=1;strokeColor=none;fillColor=none;" vertex="1" parent="1">
          <mxGeometry x="1565" y="815" width="130" height="50" as="geometry" />
        </mxCell>
        <mxCell id="5j7AbYeZaHDb51erD1fv-100" value="&lt;font style=&quot;font-size: 23px;&quot;&gt;EurekaClient&lt;/font&gt;" style="text;html=1;align=center;verticalAlign=middle;resizable=0;points=[];autosize=1;strokeColor=none;fillColor=none;" vertex="1" parent="1">
          <mxGeometry x="1730" y="820" width="160" height="40" as="geometry" />
        </mxCell>
        <mxCell id="5j7AbYeZaHDb51erD1fv-102" value="&lt;font style=&quot;font-size: 27px;&quot;&gt;LibraryDB&lt;/font&gt;" style="text;html=1;align=center;verticalAlign=middle;resizable=0;points=[];autosize=1;strokeColor=none;fillColor=none;" vertex="1" parent="1">
          <mxGeometry x="545" y="1540" width="140" height="50" as="geometry" />
        </mxCell>
        <mxCell id="5j7AbYeZaHDb51erD1fv-103" value="&lt;font style=&quot;font-size: 27px;&quot;&gt;BookDB&lt;/font&gt;" style="text;html=1;align=center;verticalAlign=middle;resizable=0;points=[];autosize=1;strokeColor=none;fillColor=none;" vertex="1" parent="1">
          <mxGeometry x="1725" y="1540" width="120" height="50" as="geometry" />
        </mxCell>
        <mxCell id="5j7AbYeZaHDb51erD1fv-104" value="&lt;font style=&quot;font-size: 27px;&quot;&gt;isIsbnExist&lt;/font&gt;" style="text;html=1;align=center;verticalAlign=middle;resizable=0;points=[];autosize=1;strokeColor=none;fillColor=none;" vertex="1" parent="1">
          <mxGeometry x="1250" y="1254" width="150" height="50" as="geometry" />
        </mxCell>
        <mxCell id="5j7AbYeZaHDb51erD1fv-105" value="&lt;font style=&quot;font-size: 75px;&quot;&gt;V3 Book.Online&lt;/font&gt;" style="text;html=1;align=center;verticalAlign=middle;resizable=0;points=[];autosize=1;strokeColor=none;fillColor=none;" vertex="1" parent="1">
          <mxGeometry x="1035" y="60" width="540" height="100" as="geometry" />
        </mxCell>
        <mxCell id="5j7AbYeZaHDb51erD1fv-106" value="" style="endArrow=classic;html=1;rounded=0;exitX=0.998;exitY=0.557;exitDx=0;exitDy=0;exitPerimeter=0;entryX=0;entryY=0.5;entryDx=0;entryDy=0;" edge="1" parent="1" source="5j7AbYeZaHDb51erD1fv-73" target="5j7AbYeZaHDb51erD1fv-74">
          <mxGeometry width="50" height="50" relative="1" as="geometry">
            <mxPoint x="1140" y="840" as="sourcePoint" />
            <mxPoint x="1280" y="840" as="targetPoint" />
          </mxGeometry>
        </mxCell>
        <mxCell id="5j7AbYeZaHDb51erD1fv-107" value="&lt;font style=&quot;font-size: 30px;&quot;&gt;FeignClient&lt;br&gt;http rest call&lt;/font&gt;" style="text;html=1;align=center;verticalAlign=middle;resizable=0;points=[];autosize=1;strokeColor=none;fillColor=none;" vertex="1" parent="1">
          <mxGeometry x="1210" y="720" width="190" height="90" as="geometry" />
        </mxCell>
        <mxCell id="5j7AbYeZaHDb51erD1fv-108" value="&lt;font style=&quot;font-size: 20px;&quot;&gt;book-service/book/{isbn}&lt;/font&gt;" style="text;html=1;align=center;verticalAlign=middle;resizable=0;points=[];autosize=1;strokeColor=none;fillColor=none;" vertex="1" parent="1">
          <mxGeometry x="1185" y="860" width="240" height="40" as="geometry" />
        </mxCell>
        <mxCell id="5j7AbYeZaHDb51erD1fv-109" value="&lt;font style=&quot;font-size: 25px;&quot;&gt;registry&lt;br&gt;book-service&lt;br&gt;localhost:8080&lt;/font&gt;" style="text;html=1;align=center;verticalAlign=middle;resizable=0;points=[];autosize=1;strokeColor=none;fillColor=none;" vertex="1" parent="1">
          <mxGeometry x="1770" y="465" width="180" height="100" as="geometry" />
        </mxCell>
        <mxCell id="5j7AbYeZaHDb51erD1fv-110" value="&lt;font style=&quot;font-size: 20px;&quot;&gt;false&lt;/font&gt;" style="text;html=1;align=center;verticalAlign=middle;resizable=0;points=[];autosize=1;strokeColor=none;fillColor=none;" vertex="1" parent="1">
          <mxGeometry x="1060" y="1200" width="70" height="40" as="geometry" />
        </mxCell>
        <mxCell id="5j7AbYeZaHDb51erD1fv-111" value="" style="endArrow=none;html=1;rounded=0;entryX=0.214;entryY=0.28;entryDx=0;entryDy=0;entryPerimeter=0;" edge="1" parent="1" source="5j7AbYeZaHDb51erD1fv-110" target="5j7AbYeZaHDb51erD1fv-77">
          <mxGeometry width="50" height="50" relative="1" as="geometry">
            <mxPoint x="1127.97" y="1219.1200000000001" as="sourcePoint" />
            <mxPoint x="1245.08" y="1220.88" as="targetPoint" />
          </mxGeometry>
        </mxCell>
        <mxCell id="5j7AbYeZaHDb51erD1fv-112" value="" style="endArrow=none;html=1;rounded=0;entryX=0.214;entryY=0.28;entryDx=0;entryDy=0;entryPerimeter=0;" edge="1" parent="1">
          <mxGeometry width="50" height="50" relative="1" as="geometry">
            <mxPoint x="1040" y="1360" as="sourcePoint" />
            <mxPoint x="1268" y="1360.4" as="targetPoint" />
          </mxGeometry>
        </mxCell>
        <mxCell id="5j7AbYeZaHDb51erD1fv-113" value="&lt;font style=&quot;font-size: 20px;&quot;&gt;true&lt;/font&gt;" style="text;html=1;align=center;verticalAlign=middle;resizable=0;points=[];autosize=1;strokeColor=none;fillColor=none;" vertex="1" parent="1">
          <mxGeometry x="979" y="1340" width="60" height="40" as="geometry" />
        </mxCell>
        <mxCell id="5j7AbYeZaHDb51erD1fv-114" value="" style="endArrow=classic;html=1;rounded=0;entryX=0.222;entryY=1.003;entryDx=0;entryDy=0;entryPerimeter=0;" edge="1" parent="1" source="5j7AbYeZaHDb51erD1fv-113" target="5j7AbYeZaHDb51erD1fv-73">
          <mxGeometry width="50" height="50" relative="1" as="geometry">
            <mxPoint x="979" y="1360" as="sourcePoint" />
            <mxPoint x="959" y="1050" as="targetPoint" />
            <Array as="points">
              <mxPoint x="959" y="1360" />
            </Array>
          </mxGeometry>
        </mxCell>
        <mxCell id="5j7AbYeZaHDb51erD1fv-116" value="&lt;font style=&quot;font-size: 25px;&quot;&gt;BookNotFoundException&lt;/font&gt;" style="text;html=1;align=center;verticalAlign=middle;resizable=0;points=[];autosize=1;strokeColor=none;fillColor=none;" vertex="1" parent="1">
          <mxGeometry x="1039" y="1070" width="300" height="40" as="geometry" />
        </mxCell>
        <mxCell id="5j7AbYeZaHDb51erD1fv-117" value="&lt;font style=&quot;font-size: 40px;&quot;&gt;Stop Process Inform User&lt;/font&gt;" style="rounded=0;whiteSpace=wrap;html=1;" vertex="1" parent="1">
          <mxGeometry x="120" y="2490" width="530" height="230" as="geometry" />
        </mxCell>
        <mxCell id="5j7AbYeZaHDb51erD1fv-118" value="&lt;font style=&quot;font-size: 35px;&quot;&gt;BookNotFoundException&lt;/font&gt;" style="ellipse;whiteSpace=wrap;html=1;aspect=fixed;" vertex="1" parent="1">
          <mxGeometry x="900" y="2380" width="450" height="450" as="geometry" />
        </mxCell>
        <mxCell id="5j7AbYeZaHDb51erD1fv-119" value="&lt;font style=&quot;font-size: 45px;&quot;&gt;Create a default value&lt;/font&gt;" style="rounded=0;whiteSpace=wrap;html=1;" vertex="1" parent="1">
          <mxGeometry x="1630" y="1830" width="530" height="230" as="geometry" />
        </mxCell>
        <mxCell id="5j7AbYeZaHDb51erD1fv-120" value="&lt;font style=&quot;font-size: 45px;&quot;&gt;Change the request path&lt;/font&gt;" style="rounded=0;whiteSpace=wrap;html=1;" vertex="1" parent="1">
          <mxGeometry x="1630" y="2260" width="530" height="230" as="geometry" />
        </mxCell>
        <mxCell id="5j7AbYeZaHDb51erD1fv-121" value="&lt;font style=&quot;font-size: 40px;&quot;&gt;Create another process&lt;/font&gt;" style="rounded=0;whiteSpace=wrap;html=1;" vertex="1" parent="1">
          <mxGeometry x="1630" y="2730" width="530" height="230" as="geometry" />
        </mxCell>
        <mxCell id="5j7AbYeZaHDb51erD1fv-122" value="&lt;font style=&quot;font-size: 40px;&quot;&gt;throw an Exception&lt;/font&gt;" style="rounded=0;whiteSpace=wrap;html=1;" vertex="1" parent="1">
          <mxGeometry x="1630" y="3150" width="530" height="230" as="geometry" />
        </mxCell>
        <mxCell id="5j7AbYeZaHDb51erD1fv-123" value="&lt;font style=&quot;font-size: 47px;&quot;&gt;Exception Handling&lt;/font&gt;" style="text;html=1;align=center;verticalAlign=middle;resizable=0;points=[];autosize=1;strokeColor=none;fillColor=none;" vertex="1" parent="1">
          <mxGeometry x="160" y="2905" width="430" height="70" as="geometry" />
        </mxCell>
        <mxCell id="5j7AbYeZaHDb51erD1fv-124" value="&lt;font size=&quot;1&quot; style=&quot;&quot;&gt;&lt;i style=&quot;font-size: 40px;&quot;&gt;Gönderilen isbn geçersizdir.&lt;/i&gt;&lt;/font&gt;" style="text;html=1;align=center;verticalAlign=middle;resizable=0;points=[];autosize=1;strokeColor=none;fillColor=none;" vertex="1" parent="1">
          <mxGeometry x="120" y="3000" width="520" height="60" as="geometry" />
        </mxCell>
        <mxCell id="5j7AbYeZaHDb51erD1fv-125" value="" style="endArrow=classic;html=1;rounded=0;entryX=0.488;entryY=0.071;entryDx=0;entryDy=0;entryPerimeter=0;exitX=0.467;exitY=0.992;exitDx=0;exitDy=0;exitPerimeter=0;" edge="1" parent="1" source="5j7AbYeZaHDb51erD1fv-117" target="5j7AbYeZaHDb51erD1fv-123">
          <mxGeometry width="50" height="50" relative="1" as="geometry">
            <mxPoint x="370" y="2790" as="sourcePoint" />
            <mxPoint x="390" y="2810" as="targetPoint" />
          </mxGeometry>
        </mxCell>
        <mxCell id="5j7AbYeZaHDb51erD1fv-126" value="" style="endArrow=classic;html=1;rounded=0;exitX=1;exitY=0.5;exitDx=0;exitDy=0;entryX=0;entryY=0.5;entryDx=0;entryDy=0;" edge="1" parent="1" source="5j7AbYeZaHDb51erD1fv-117" target="5j7AbYeZaHDb51erD1fv-118">
          <mxGeometry width="50" height="50" relative="1" as="geometry">
            <mxPoint x="730" y="2770" as="sourcePoint" />
            <mxPoint x="780" y="2720" as="targetPoint" />
          </mxGeometry>
        </mxCell>
        <mxCell id="5j7AbYeZaHDb51erD1fv-128" value="" style="endArrow=none;html=1;rounded=0;exitX=1;exitY=0.5;exitDx=0;exitDy=0;" edge="1" parent="1" source="5j7AbYeZaHDb51erD1fv-118">
          <mxGeometry width="50" height="50" relative="1" as="geometry">
            <mxPoint x="1420" y="2650" as="sourcePoint" />
            <mxPoint x="1520" y="2605" as="targetPoint" />
          </mxGeometry>
        </mxCell>
        <mxCell id="5j7AbYeZaHDb51erD1fv-129" value="" style="endArrow=none;html=1;rounded=0;" edge="1" parent="1">
          <mxGeometry width="50" height="50" relative="1" as="geometry">
            <mxPoint x="1520" y="3280" as="sourcePoint" />
            <mxPoint x="1520" y="1920" as="targetPoint" />
          </mxGeometry>
        </mxCell>
        <mxCell id="5j7AbYeZaHDb51erD1fv-130" value="" style="endArrow=classic;html=1;rounded=0;entryX=0.002;entryY=0.436;entryDx=0;entryDy=0;entryPerimeter=0;" edge="1" parent="1">
          <mxGeometry width="50" height="50" relative="1" as="geometry">
            <mxPoint x="1518.94" y="1920" as="sourcePoint" />
            <mxPoint x="1630" y="1920.2800000000002" as="targetPoint" />
          </mxGeometry>
        </mxCell>
        <mxCell id="5j7AbYeZaHDb51erD1fv-131" value="" style="endArrow=classic;html=1;rounded=0;entryX=0.001;entryY=0.433;entryDx=0;entryDy=0;entryPerimeter=0;" edge="1" parent="1" target="5j7AbYeZaHDb51erD1fv-120">
          <mxGeometry width="50" height="50" relative="1" as="geometry">
            <mxPoint x="1520" y="2360" as="sourcePoint" />
            <mxPoint x="1600" y="2320" as="targetPoint" />
          </mxGeometry>
        </mxCell>
        <mxCell id="5j7AbYeZaHDb51erD1fv-132" value="" style="endArrow=classic;html=1;rounded=0;entryX=-0.002;entryY=0.482;entryDx=0;entryDy=0;entryPerimeter=0;" edge="1" parent="1" target="5j7AbYeZaHDb51erD1fv-121">
          <mxGeometry width="50" height="50" relative="1" as="geometry">
            <mxPoint x="1520" y="2840" as="sourcePoint" />
            <mxPoint x="1600" y="2840" as="targetPoint" />
          </mxGeometry>
        </mxCell>
        <mxCell id="5j7AbYeZaHDb51erD1fv-133" value="" style="endArrow=classic;html=1;rounded=0;entryX=-0.002;entryY=0.561;entryDx=0;entryDy=0;entryPerimeter=0;" edge="1" parent="1" target="5j7AbYeZaHDb51erD1fv-122">
          <mxGeometry width="50" height="50" relative="1" as="geometry">
            <mxPoint x="1520" y="3280" as="sourcePoint" />
            <mxPoint x="1590" y="3290" as="targetPoint" />
          </mxGeometry>
        </mxCell>
        <mxCell id="5j7AbYeZaHDb51erD1fv-134" value="&lt;font style=&quot;font-size: 40px;&quot;&gt;new proess&lt;/font&gt;" style="text;html=1;align=center;verticalAlign=middle;resizable=0;points=[];autosize=1;strokeColor=none;fillColor=none;" vertex="1" parent="1">
          <mxGeometry x="2220" y="2120" width="230" height="60" as="geometry" />
        </mxCell>
      </root>
    </mxGraphModel>
  </diagram>
</mxfile>
